<svg xmlns="http://www.w3.org/2000/svg" width="1080" height="1350" viewBox="0 0 1080 1350">
  <defs>
    <linearGradient id="bg" x1="0" y1="0" x2="1" y2="1"><stop stop-color="#02070d"/><stop offset=".55" stop-color="#071827"/><stop offset="1" stop-color="#010306"/></linearGradient>
    <radialGradient id="glow" cx="78%" cy="65%" r="66%"><stop stop-color="#d77b32" stop-opacity=".28"/><stop offset=".52" stop-color="#194e70" stop-opacity=".16"/><stop offset="1" stop-color="#03101c" stop-opacity="0"/></radialGradient>
    <linearGradient id="veil" x1="0" y1="0" x2="1" y2="0"><stop stop-color="#01060b" stop-opacity=".95"/><stop offset=".58" stop-color="#03101a" stop-opacity=".63"/><stop offset="1" stop-color="#02070d" stop-opacity=".18"/></linearGradient>
    <filter id="shadow"><feGaussianBlur in="SourceAlpha" stdDeviation="16"/><feOffset dy="16"/><feComponentTransfer><feFuncA type="linear" slope=".62"/></feComponentTransfer><feMerge><feMergeNode/><feMergeNode in="SourceGraphic"/></feMerge></filter>
  </defs>
  <rect width="1080" height="1350" fill="url(#bg)"/><rect width="1080" height="1350" fill="url(#glow)"/>
  <g opacity=".16" fill="none" stroke="#d77b32"><circle cx="870" cy="780" r="280"/><circle cx="870" cy="780" r="390"/><circle cx="870" cy="780" r="510"/></g>
  <g stroke="#7db3d0" opacity=".13"><path d="M-40 1080 L870 370"/><path d="M170 1350 L1050 535"/><path d="M570 1350 L1080 875"/></g>
  <g fill="#86b9d6" opacity=".52"><circle cx="92" cy="130" r="2"/><circle cx="195" cy="190" r="1.5"/><circle cx="886" cy="113" r="2"/><circle cx="978" cy="270" r="1.4"/><circle cx="810" cy="502" r="2"/><circle cx="135" cy="670" r="1.3"/><circle cx="930" cy="780" r="1.6"/><circle cx="177" cy="1070" r="2"/><circle cx="867" cy="1210" r="1.4"/></g>
  <rect x="58" y="55" width="114" height="4" fill="#d77b32"/>
  <text x="58" y="91" fill="#f2f0eb" font-family="Arial, sans-serif" font-size="20" font-weight="bold" letter-spacing="2">ARREAL • BRUNO DUARTE CORRÊA</text>
  <text x="1018" y="91" fill="#d77b32" text-anchor="end" font-family="Arial, sans-serif" font-size="20" font-weight="bold">2/6</text>
  
  <text x="62" y="292" fill="#d77b32" font-family="Arial, sans-serif" font-size="64" font-weight="800" letter-spacing="1.2"><tspan x="62" dy="0">QUANDO O SOCO VEM,</tspan></text>
  <text x="58" y="455" fill="#f6f4ef" font-family="Impact, Arial Black, sans-serif" font-size="78" font-weight="900" letter-spacing="1.2"><tspan x="58" dy="0">GAROTO NÃO PENSA</tspan></text>
  <text x="62" y="865" fill="#f0eee8" font-family="Arial, sans-serif" font-size="38" font-weight="700" letter-spacing="1.2"><tspan x="62" dy="0">EM LUTAR.</tspan></text>
  <rect x="58" y="1236" width="390" height="57" rx="28" fill="#d77b32"/>
  <text x="253" y="1274" fill="#06101a" text-anchor="middle" font-family="Arial, sans-serif" font-size="22" font-weight="bold" letter-spacing="1">POR QUE LER ARREAL? • 2/5</text>
  </svg>