<svg xmlns="http://www.w3.org/2000/svg" width="1080" height="1350" viewBox="0 0 1080 1350">
  <defs><linearGradient id="bg" x2="1" y2="1"><stop stop-color="#02070d"/><stop offset=".56" stop-color="#0a2032"/><stop offset="1" stop-color="#020507"/></linearGradient><radialGradient id="glow" cx="77%" cy="72%" r="62%"><stop stop-color="#d77f25" stop-opacity=".33"/><stop offset="1" stop-color="#061828" stop-opacity="0"/></radialGradient></defs>
  <rect width="1080" height="1350" fill="url(#bg)"/><rect width="1080" height="1350" fill="url(#glow)"/><path d="M0 1040c225-180 418 50 620-76s318-174 460-78v464H0Z" fill="#06131f"/>
  <g fill="#91bed6" opacity=".42"><circle cx="94" cy="130" r="2"/><circle cx="192" cy="187" r="1"/><circle cx="902" cy="121" r="2"/><circle cx="834" cy="392" r="1.5"/><circle cx="133" cy="676" r="2"/><circle cx="929" cy="1073" r="1.5"/></g>
  <rect x="58" y="55" width="114" height="4" fill="#dba14b"/><text x="58" y="91" fill="#f2f0eb" font-family="Arial, sans-serif" font-size="20" font-weight="bold" letter-spacing="2">ARREAL • BRUNO DUARTE CORRÊA</text><text x="974" y="91" fill="#dba14b" text-anchor="end" font-family="Arial, sans-serif" font-size="20" font-weight="bold">1/5</text>
  <text x="58" y="250" fill="#e3aa55" font-family="Impact, sans-serif" font-size="112" letter-spacing="2">NÃO TEM</text><text x="58" y="351" fill="#f6f4ef" font-family="Impact, sans-serif" font-size="112" letter-spacing="2">KINDLE?</text>
  <text x="61" y="422" fill="#f6f4ef" font-family="Arial, sans-serif" font-size="31" font-weight="bold">VOCÊ PODE LER ARREAL</text><text x="61" y="460" fill="#f6f4ef" font-family="Arial, sans-serif" font-size="31" font-weight="bold">NO SEU CELULAR.</text>
  <rect x="598" y="532" width="365" height="605" rx="10" fill="#06101a" opacity=".75"/><rect x="586" y="520" width="365" height="605" rx="7" fill="#dba14b"/><image href="BOOK_COVER_DATA_URI" x="595" y="529" width="347" height="587" preserveAspectRatio="xMidYMid slice"/>
  <rect x="117" y="691" width="364" height="559" rx="51" fill="#111b25" stroke="#dba14b" stroke-width="6"/><rect x="142" y="756" width="314" height="440" rx="10" fill="#06101a"/><image href="BOOK_COVER_DATA_URI" x="196" y="805" width="206" height="330" preserveAspectRatio="xMidYMid slice"/><rect x="226" y="717" width="145" height="13" rx="6" fill="#3a4651"/><circle cx="299" cy="1219" r="13" fill="#34414a"/>
  <rect x="58" y="1234" width="460" height="57" rx="28" fill="#dba14b"/><text x="288" y="1273" fill="#06101a" text-anchor="middle" font-family="Arial, sans-serif" font-size="23" font-weight="bold" letter-spacing="1">DESLIZE PARA VER COMO  ›</text>
</svg>
